/vscmnt/brussel_pixiu_data/_data_brussel/112/vsc11236/PredSimResults/SUBJ11mtu3D/worker6.mot
version=1
nRows=5
nColumns=50
inDegrees=yes
endheader
                time	         pelvis_tilt	         pelvis_list	     pelvis_rotation	           pelvis_tx	           pelvis_ty	           pelvis_tz	       hip_flexion_r	     hip_adduction_r	      hip_rotation_r	        knee_angle_r	       ankle_angle_r	         mtp_angle_r	       hip_flexion_l	     hip_adduction_l	      hip_rotation_l	        knee_angle_l	       ankle_angle_l	         mtp_angle_l	    lumbar_extension	      lumbar_bending	     lumbar_rotation	 ercspn_r/activation	 intobl_r/activation	 extobl_r/activation	    abd_r/activation	    add_r/activation	hamstrings_r/activation	bifemsh_r/activation	glut_max_r/activation	iliopsoas_r/activation	rect_fem_r/activation	  vasti_r/activation	gastroc_r/activation	 soleus_r/activation	tib_ant_r/activation	 ercspn_l/activation	 intobl_l/activation	 extobl_l/activation	    abd_l/activation	    add_l/activation	hamstrings_l/activation	bifemsh_l/activation	glut_max_l/activation	iliopsoas_l/activation	rect_fem_l/activation	  vasti_l/activation	gastroc_l/activation	 soleus_l/activation	tib_ant_l/activation	
          0.67482282	         -3.60604271	          1.01644722	         -6.15327248	          0.74230510	          0.94053777	          0.00859674	        -13.72001270	         -3.18170607	         -0.05111437	        -11.67391095	         12.06779997	         29.38161240	         30.97468650	         -2.41560506	         -3.71156604	         -8.50176210	          2.67980154	          0.26723038	        -13.91518676	          1.06035646	          3.79257772	          0.01897411	          0.01000810	          0.01000824	          0.03378822	          0.02388254	          0.01447345	          0.22476647	          0.01604279	          0.12274506	          0.01012833	          0.01001146	          0.14404312	          0.27385480	          0.01224664	          0.04070663	          0.19071991	          0.04799005	          0.01000194	          0.18185789	          0.05517993	          0.14132533	          0.08848974	          0.05647255	          0.02931159	          0.01001256	          0.01001032	          0.01000172	          0.44762483	
          0.68831928	         -3.67968739	          1.07339826	         -6.27013669	          0.76138420	          0.93846837	          0.00715387	        -14.36395024	         -3.46208788	         -0.32882832	        -12.38808410	         11.19016474	         31.20949100	         30.64229343	         -2.25186773	         -3.93027361	         -9.72279079	          2.12767406	          0.21625353	        -13.44768209	          0.63405101	          4.09146543	          0.03163651	          0.01000388	          0.01001379	          0.02758382	          0.01950809	          0.02286705	          0.18350587	          0.01310418	          0.10022941	          0.01001383	          0.01000823	          0.11759329	          0.24960707	          0.01000164	          0.03323870	          0.15569915	          0.03917768	          0.05340901	          0.16510310	          0.05963276	          0.11537950	          0.11850562	          0.04610261	          0.02393829	          0.01000354	          0.01226140	          0.01225160	          0.49751857	
          0.70181573	         -3.73774043	          1.12120274	         -6.35812026	          0.78062170	          0.93681685	          0.00563411	        -14.82649804	         -3.73512382	         -0.62048263	        -13.43465657	         10.14562417	         33.09127105	         30.32000119	         -2.10856708	         -4.15227594	        -11.00074051	          1.45022902	          0.20775317	        -12.97333820	          0.21661320	          4.37635242	          0.05409864	          0.01000276	          0.01000770	          0.02251873	          0.01593776	          0.01875737	          0.14981735	          0.01070172	          0.11255076	          0.01004496	          0.01001483	          0.09599967	          0.22095569	          0.01000158	          0.03589551	          0.12710824	          0.03198355	          0.10674191	          0.20891813	          0.04868903	          0.09419697	          0.13731255	          0.03763701	          0.01955247	          0.01004963	          0.01001184	          0.01000289	          0.56139518	
          0.71531219	         -3.78058612	          1.15261415	         -6.41500960	          0.79972281	          0.93578760	          0.00404285	        -14.99705987	         -3.99125571	         -0.91686876	        -14.96730780	          8.92759808	         34.98782880	         30.12911557	         -1.98641735	         -4.38522549	        -12.49449847	          0.73993854	          0.15916356	        -12.52684172	         -0.18301535	          4.64206364	          0.07543564	          0.01000375	          0.01000579	          0.01838374	          0.08545283	          0.01988967	          0.12231706	          0.01001114	          0.12649675	          0.01001857	          0.01000786	          0.07837119	          0.18038219	          0.01000144	          0.04275921	          0.10376749	          0.02611053	          0.13222164	          0.26779779	          0.04698795	          0.07690450	          0.14022809	          0.03072600	          0.01597377	          0.06102834	          0.01000555	          0.01000244	          0.61125508	
          0.72880864	         -3.80871989	          1.16473587	         -6.44028117	          0.81858839	          0.93546931	          0.00240803	        -14.79019346	         -4.22593130	         -1.22450227	        -17.12143115	          7.56029727	         36.77786604	         29.98330290	         -1.87833757	         -4.60406786	        -14.12391197	          0.35002250	          0.10459943	        -12.11475324	         -0.56219397	          4.88359726	          0.10185561	          0.01000419	          0.01000609	          0.01500805	          0.13774482	          0.01644082	          0.09987781	          0.01000326	          0.11037194	          0.01001021	          0.01000256	          0.06397982	          0.14725812	          0.01000123	          0.03493071	          0.08471284	          0.02131602	          0.15586621	          0.29064181	          0.04894045	          0.06278906	          0.14880492	          0.02508409	          0.01305572	          0.10447415	          0.01000993	          0.01000467	          0.61488487	
